<?xml version="1.0" encoding="utf-8"?>
<!-- Generator: Adobe Illustrator 15.0.2, SVG Export Plug-In . SVG Version: 6.00 Build 0)  -->
<!DOCTYPE svg PUBLIC "-//W3C//DTD SVG 1.1//EN" "http://www.w3.org/Graphics/SVG/1.1/DTD/svg11.dtd">
<svg version="1.1" id="Layer_1" xmlns="http://www.w3.org/2000/svg" xmlns:xlink="http://www.w3.org/1999/xlink" x="0px" y="0px"
	 width="739.271px" height="120px" viewBox="0 0 739.271 120" enable-background="new 0 0 739.271 120" xml:space="preserve">
<g>
	<path fill="#334DF5" d="M38.068,15.699L35.704,3.012H0l2.154,32.254v81.723h39.574V48.171c2.574-3.222,10.104-7.529,23.009-7.529
		h6.453V0.218C70.113,0,69.035,0,67.958,0C55.054,0,44.949,6.233,38.068,15.699z"/>
	<path fill="#334DF5" d="M133.387,0C96.615,0,77.686,23.437,77.686,56.769v6.453c0,33.34,18.062,56.778,56.987,56.778
		c33.122,0,52.689-15.918,52.689-38.708v-0.865h-37.201c0,5.376-6.671,9.892-15.269,9.892c-9.894,0-16.347-3.439-17.634-16.337
		h70.104V56.769C187.363,23.437,170.159,0,133.387,0z M117.259,46.017c1.069-12.038,6.015-16.336,15.261-16.336
		c9.254,0,14.201,4.298,15.269,16.336H117.259z"/>
	<path fill="#334DF5" d="M251.513,45.589c-9.683-0.858-12.477-2.793-12.477-8.168c0-4.518,3.66-7.74,10.752-7.74
		c7.101,0,10.752,4.08,10.752,10.962h38.705v-1.068C299.245,14.411,283.986,0,249.788,0c-27.098,0-49.459,10.541-49.459,38.707
		v2.153c0,22.791,15.27,29.891,47.953,32.474c10.752,0.858,12.904,3.87,12.904,8.597c0,4.52-2.791,8.388-11.398,8.388
		c-8.169,0-11.609-3.65-11.609-9.892h-39.355v1.075c0,23.658,17.415,38.498,50.965,38.498c34.198,0,50.965-14.84,50.965-39.784
		v-2.153C300.753,53.118,280.108,47.953,251.513,45.589z"/>
	<path fill="#334DF5" d="M424.045,3.012h-39.573v74.192c-2.156,3.223-7.96,8.816-16.559,8.816c-10.75,0-12.047-7.739-12.047-13.115
		V3.012h-39.564v76.346c0,20.427,8.599,40.643,35.485,40.643c16.984,0,28.595-6.882,35.913-16.995l2.795,13.983h35.694
		l-2.145-32.255V3.012z"/>
	<path fill="#334DF5" d="M580.239,0c-16.558,0-27.955,7.1-34.838,17.423C540.245,7.1,530.779,0,515.51,0
		c-15.915,0-26.878,6.453-33.978,16.127l-2.364-13.115h-35.696l2.145,32.254v81.723h39.575v-75.27
		c2.146-3.223,6.663-7.74,14.192-7.74c8.599,0,10.961,5.595,10.961,12.038v70.972h39.574v-75.27c2.154-3.223,6.663-7.74,14.192-7.74
		c8.605,0,10.97,5.595,10.97,12.038v70.972h39.566V39.574C614.647,18.062,604.973,0,580.239,0z"/>
	<path fill="#334DF5" d="M739.271,56.769C739.271,23.437,722.064,0,685.292,0c-36.771,0-55.701,23.437-55.701,56.769v6.453
		c0,33.34,18.062,56.778,56.988,56.778c33.121,0,52.691-15.918,52.691-38.708v-0.865h-37.202c0,5.376-6.671,9.892-15.27,9.892
		c-9.895,0-16.346-3.439-17.632-16.337h70.104V56.769z M669.167,46.017c1.066-12.038,6.015-16.336,15.268-16.336
		c9.246,0,14.191,4.298,15.261,16.336H669.167z"/>
</g>
</svg>
